<mxfile host="app.diagrams.net" modified="2020-12-03T17:05:13.155Z" agent="5.0 (Windows)" etag="8APj_xkJZelyEugj0erV" version="13.10.6" type="github">
  <diagram name="Page-1" id="0783ab3e-0a74-02c8-0abd-f7b4e66b4bec">
    <mxGraphModel dx="1198" dy="623" grid="1" gridSize="10" guides="1" tooltips="1" connect="1" arrows="1" fold="1" page="1" pageScale="1" pageWidth="850" pageHeight="1100" background="#ffffff" math="0" shadow="0">
      <root>
        <mxCell id="0" />
        <mxCell id="1" parent="0" />
        <mxCell id="7u4_Z7Mw72sVkrCknOZ8-1" value="" style="ellipse;fillColor=#000000;strokeColor=none;" vertex="1" parent="1">
          <mxGeometry x="430" y="28" width="50" height="50" as="geometry" />
        </mxCell>
        <mxCell id="7u4_Z7Mw72sVkrCknOZ8-2" value="نمایش اعلان ثبت نظر کاربر پس از دریافت غذا" style="shape=rect;html=1;rounded=1;whiteSpace=wrap;align=center;fontSize=21;fontStyle=1" vertex="1" parent="1">
          <mxGeometry x="365" y="138" width="180" height="80" as="geometry" />
        </mxCell>
        <mxCell id="7u4_Z7Mw72sVkrCknOZ8-3" value="" style="endArrow=open;endFill=1;endSize=12;html=1;fontSize=21;exitX=0.5;exitY=1;exitDx=0;exitDy=0;entryX=0.5;entryY=0;entryDx=0;entryDy=0;" edge="1" parent="1" source="7u4_Z7Mw72sVkrCknOZ8-1" target="7u4_Z7Mw72sVkrCknOZ8-2">
          <mxGeometry width="160" relative="1" as="geometry">
            <mxPoint x="480" y="278" as="sourcePoint" />
            <mxPoint x="640" y="278" as="targetPoint" />
          </mxGeometry>
        </mxCell>
        <mxCell id="7u4_Z7Mw72sVkrCknOZ8-5" value="" style="endArrow=open;endFill=1;endSize=12;html=1;fontSize=21;exitX=0.5;exitY=1;exitDx=0;exitDy=0;entryX=0.5;entryY=0;entryDx=0;entryDy=0;" edge="1" parent="1" source="7u4_Z7Mw72sVkrCknOZ8-2" target="7u4_Z7Mw72sVkrCknOZ8-10">
          <mxGeometry width="160" relative="1" as="geometry">
            <mxPoint x="454.5" y="228" as="sourcePoint" />
            <mxPoint x="455" y="280" as="targetPoint" />
          </mxGeometry>
        </mxCell>
        <mxCell id="7u4_Z7Mw72sVkrCknOZ8-6" value="" style="ellipse;html=1;shape=endState;fillColor=#000000;strokeColor=#ff0000;fontSize=21;" vertex="1" parent="1">
          <mxGeometry x="430" y="525" width="50" height="50" as="geometry" />
        </mxCell>
        <mxCell id="7u4_Z7Mw72sVkrCknOZ8-7" value="" style="endArrow=open;endFill=1;endSize=12;html=1;fontSize=21;exitX=0.5;exitY=1;exitDx=0;exitDy=0;entryX=0.5;entryY=0;entryDx=0;entryDy=0;" edge="1" parent="1" source="7u4_Z7Mw72sVkrCknOZ8-10" target="7u4_Z7Mw72sVkrCknOZ8-8">
          <mxGeometry width="160" relative="1" as="geometry">
            <mxPoint x="455" y="360" as="sourcePoint" />
            <mxPoint x="620" y="440" as="targetPoint" />
          </mxGeometry>
        </mxCell>
        <mxCell id="7u4_Z7Mw72sVkrCknOZ8-11" value="خیر" style="edgeLabel;html=1;align=center;verticalAlign=middle;resizable=0;points=[];fontSize=16;" vertex="1" connectable="0" parent="7u4_Z7Mw72sVkrCknOZ8-7">
          <mxGeometry x="-0.275" y="-1" relative="1" as="geometry">
            <mxPoint as="offset" />
          </mxGeometry>
        </mxCell>
        <mxCell id="7u4_Z7Mw72sVkrCknOZ8-8" value="کلیک برروی دکمه رد نظر" style="shape=rect;html=1;rounded=1;whiteSpace=wrap;align=center;fontSize=21;fontStyle=1" vertex="1" parent="1">
          <mxGeometry x="367.5" y="400" width="175" height="60" as="geometry" />
        </mxCell>
        <mxCell id="7u4_Z7Mw72sVkrCknOZ8-9" value="" style="endArrow=open;endFill=1;endSize=12;html=1;fontSize=21;exitX=0.5;exitY=1;exitDx=0;exitDy=0;entryX=0.5;entryY=0;entryDx=0;entryDy=0;" edge="1" parent="1" source="7u4_Z7Mw72sVkrCknOZ8-8" target="7u4_Z7Mw72sVkrCknOZ8-6">
          <mxGeometry width="160" relative="1" as="geometry">
            <mxPoint x="660" y="512" as="sourcePoint" />
            <mxPoint x="660" y="562" as="targetPoint" />
            <Array as="points" />
          </mxGeometry>
        </mxCell>
        <mxCell id="7u4_Z7Mw72sVkrCknOZ8-10" value="وارد کردن نظر" style="rhombus;fontStyle=1;fontSize=16;" vertex="1" parent="1">
          <mxGeometry x="400" y="260" width="110" height="60" as="geometry" />
        </mxCell>
        <mxCell id="7u4_Z7Mw72sVkrCknOZ8-12" value="" style="endArrow=open;endFill=1;endSize=12;html=1;fontSize=16;exitX=0;exitY=0.5;exitDx=0;exitDy=0;entryX=1;entryY=0.5;entryDx=0;entryDy=0;" edge="1" parent="1" source="7u4_Z7Mw72sVkrCknOZ8-10" target="7u4_Z7Mw72sVkrCknOZ8-14">
          <mxGeometry width="160" relative="1" as="geometry">
            <mxPoint x="190" y="360" as="sourcePoint" />
            <mxPoint x="310" y="290" as="targetPoint" />
          </mxGeometry>
        </mxCell>
        <mxCell id="7u4_Z7Mw72sVkrCknOZ8-13" value="بله" style="edgeLabel;html=1;align=center;verticalAlign=middle;resizable=0;points=[];fontSize=16;" vertex="1" connectable="0" parent="7u4_Z7Mw72sVkrCknOZ8-12">
          <mxGeometry x="-0.2889" y="3" relative="1" as="geometry">
            <mxPoint as="offset" />
          </mxGeometry>
        </mxCell>
        <mxCell id="7u4_Z7Mw72sVkrCknOZ8-14" value="کلیک بر روی ثبت" style="shape=rect;html=1;rounded=1;whiteSpace=wrap;align=center;fontSize=21;fontStyle=1" vertex="1" parent="1">
          <mxGeometry x="150" y="260" width="130" height="60" as="geometry" />
        </mxCell>
        <mxCell id="7u4_Z7Mw72sVkrCknOZ8-16" value="" style="endArrow=open;endFill=1;endSize=12;html=1;fontSize=21;exitX=0.4;exitY=1.067;exitDx=0;exitDy=0;entryX=0;entryY=0.75;entryDx=0;entryDy=0;exitPerimeter=0;" edge="1" parent="1" source="7u4_Z7Mw72sVkrCknOZ8-14" target="7u4_Z7Mw72sVkrCknOZ8-8">
          <mxGeometry width="160" relative="1" as="geometry">
            <mxPoint x="200" y="380" as="sourcePoint" />
            <mxPoint x="200" y="440" as="targetPoint" />
            <Array as="points">
              <mxPoint x="202" y="445" />
            </Array>
          </mxGeometry>
        </mxCell>
      </root>
    </mxGraphModel>
  </diagram>
</mxfile>
